<svg version="1.1" xmlns="http://www.w3.org/2000/svg" x="0px" y="0px"
	 viewBox="0 0 394 120" style="enable-background:new 0 0 394 120;" xml:space="preserve">
<style type="text/css">
	.st0{fill:#343434;}
	.st1{fill:#aaaaaa;}
</style>
<g>
	<path class="st0" d="M32.9,72l1.5-13.2H42L40.5,72H32.9z M33,22.2h8.9L41,20.1h11.7l0.9,2.2h11.2v7.1H33V22.2z M44.1,49v-4.4H33
		v-7.1h3.7l-2.6-6.1h9.3l2.6,6.1h5.9l2.5-6.1h9.3l-2.6,6.1h3.7v7.1h-11V49h11V56h-11v9.2c0,0.9-0.2,1.8-0.5,2.6
		c-0.4,0.8-0.8,1.5-1.4,2.2c-0.6,0.6-1.3,1.1-2.2,1.5C48.9,71.9,48,72,47.1,72h-6.3l1.9-5H43c0.8,0,1.2-0.4,1.2-1.2V56H33v-7.1
		L44.1,49L44.1,49z M55.8,58.9h7.6L64.9,72h-7.6L55.8,58.9z M78,27.4v7.1h18.1v6.1h-2.4V72H84V40.5h-6v25.4L76.1,72h-9.7l1.9-6.1V28
		v-3.5v-2.7l27.9-1.6v6.1L78,27.4z"/>
	<path class="st0" d="M101.2,38.5V24.9h-2V20h31.1v4.8h-2v12.7l2-0.1V42l-2,0.1v2.1h-9.8v-1.7l-19.3,0.7v-4.6L101.2,38.5z
		 M124.8,58.2v-1.8L99.2,63v-6.4l15.8-4.2l-15.8,0.4v-6l63.2-1.4v6L133.9,52v2.2h7.8l4.8,4.1l3-2.4h13l-7.5,6.7h-3.7l10.8,9.5h-13
		L134,58.9v6.3c0,0.9-0.2,1.7-0.6,2.5c-0.4,0.8-1,1.5-1.7,2.2c-0.7,0.6-1.5,1.1-2.5,1.5c-0.9,0.4-1.9,0.6-2.9,0.6h-6l2.2-5.1h0.6
		c0.6,0,1.1-0.2,1.4-0.6s0.5-0.9,0.5-1.5l-25.6,7.3v-6.4L124.8,58.2z M111,24.9v1.6h7.5V25H111V24.9z M111,32.2h7.5v-1.7H111V32.2z
		 M111,38.2l7.5-0.3v-1.7H111V38.2z M162,25.4c-0.3,1.8-1.2,3.7-2.7,5.7s-3.4,3.8-5.8,5.5c1.2,0.5,2.6,0.9,3.9,1.2
		c1.4,0.3,2.8,0.6,4.4,0.7V44c-2.7-0.1-5.4-0.5-7.9-1.2s-4.9-1.5-7.2-2.6c-2.1,0.9-4.4,1.7-6.8,2.3c-2.4,0.6-5,1.1-7.7,1.3v-5.4
		c3.1-0.4,5.8-1.1,8.1-1.9c-1.8-1.4-3.3-2.9-4.5-4.5c-1.2-1.6-2-3.2-2.5-4.9h9.6c0.8,2.1,2.2,4,4.3,5.7c2.6-2,4.6-4.6,5.8-7.7h-21
		v-5h30v5h0V25.4z"/>
	<path class="st0" d="M176.8,65.8l-11.3,1.1v-7.1l11.3-1.2v-8.4h-11.3l3.1-19.4h-3.1v-7.1h4.2l0.6-3.5h9.1l-0.6,3.5H194v7.1h-16.4
		L175.7,43h3.1v-7.9h7.3V43h7.9v7.1h-7.9v7.5l7.9-0.8v7.1l-7.9,0.8v7.4h-9.4L176.8,65.8L176.8,65.8z M207.5,72.1V54.9h-11.3v-7.1
		h11.3v-20H197v-7.1h30.7v7.1h-10.5v19.9h11.3v7.1h-11.3v17.4H207.5z"/>
	<path class="st0" d="M287.1,22.8c1.1,0,2.1,0.2,3,0.6c1,0.4,1.8,1,2.5,1.7s1.3,1.6,1.7,2.5c0.4,1,0.6,2,0.6,3v5.7h-7.7v5.3h-19.7
		l3.7,6.4v4.3l6.1-9.4h9.9l-6.6,10h3.5l9.3,19.1h-9.6l-8.6-18h-4.1V64c0,1.1-0.2,2.1-0.6,3.1s-1,1.8-1.7,2.5
		c-0.7,0.7-1.6,1.3-2.5,1.7c-1,0.4-2,0.6-3,0.6h-9.6l3.1-6.3h2.1c0.7,0,1.2-0.2,1.7-0.6c0.5-0.4,0.6-1,0.6-1.7V63l-29.5,7.3v-6
		l29.5-7.6v-1.9l-29.5,7.3v-6l29.3-7.2l-1.1-1.8L231.7,54v-6.8l25.1-5.6h-0.1h-19v-5.3h-6.2V22.8h25.1l-1.1-2.5h10.8l1.1,2.5H287.1z
		 M240.7,29.4v5.9h45v-3.7c0-0.6-0.2-1.2-0.6-1.6s-1-0.6-1.6-0.6C283.5,29.3,240.7,29.3,240.7,29.4z"/>
	<path class="st0" d="M357.9,55.4h3.2v7.1h-63.4v-7.1h3.2V20.1h49c1.1,0,2.1,0.2,3,0.6c1,0.4,1.8,1,2.5,1.7s1.3,1.6,1.7,2.5
		c0.4,1,0.6,2,0.6,3.1v27.3H357.9z M305.2,64.8H316l-7.4,7.3h-10.8L305.2,64.8z M311,27.2v2.4h36.9v-0.2c0-0.6-0.2-1.2-0.6-1.6
		s-1-0.6-1.7-0.6H311z M347.9,35.2H311v3.2h36.9V35.2z M311,43.9V47h36.9v-3.1H311z M311,55.4h36.9v-2.8H311V55.4z M353.7,64.8
		l7.4,7.3h-10.8l-7.4-7.3C342.9,64.9,353.7,64.9,353.7,64.8z"/>
</g>
<g>
	<path class="st1" d="M32.2,91.6l-7.9-11.9h6.3l4.7,7.9l5.1-7.9h6.2l-8.1,11.9l8.1,12.1h-6l-5.3-8.2l-5.2,8.2H24L32.2,91.6z"/>
	<path class="st1" d="M49.1,84.4v-4.7h4.8v4.7H49.1z M49.1,86.2h4.8v17.5h-4.8V86.2z"/>
	<path class="st1" d="M58.7,86.2H68c1.4,0,2.5,0.1,3.2,0.3c0.7,0.2,1.4,0.6,2,1.1c1.2,1.1,1.8,2.9,1.8,5.3v10.8h-4.8V92.4
		c0-0.9-0.2-1.5-0.6-1.9c-0.4-0.4-1-0.6-1.9-0.6h-4.2v13.8h-4.8V86.2z"/>
	<path class="st1" d="M85.5,86.2v16.1c0,1.7-0.2,3-0.5,3.9c-0.3,0.9-0.9,1.7-1.6,2.3c-1.1,0.8-2.7,1.3-5,1.4h-2.1v-3.6h1.2
		c1.4,0,2.3-0.3,2.7-0.8c0.2-0.2,0.3-0.5,0.4-0.9c0.1-0.4,0.1-1,0.1-1.9V86.2H85.5z M80.7,84.3v-4.5h4.8v4.5H80.7z"/>
	<path class="st1" d="M101.6,100V86.2h4.8v17.5h-9.5c-1.4,0-2.4-0.1-3.2-0.3c-0.7-0.2-1.4-0.6-2-1.1c-1.2-1.1-1.8-2.9-1.8-5.4V86.2
		h4.8v11.3c0,0.8,0.2,1.4,0.6,1.9c0.4,0.4,1,0.7,1.7,0.7H101.6z"/>
	<path class="st1" d="M115.5,95.1l-6.3-8.9h5.4l3.7,5.2l3.6-5.2h5.7l-6.6,8.9l6.6,8.7h-5.7l-3.6-5l-3.7,5h-5.7L115.5,95.1z"/>
	<path class="st1" d="M141.5,100V86.2h4.8v17.5h-9.5c-1.4,0-2.4-0.1-3.2-0.3c-0.7-0.2-1.4-0.6-2-1.1c-1.2-1.1-1.8-2.9-1.8-5.4V86.2
		h4.8v11.3c0,0.8,0.2,1.4,0.6,1.9c0.4,0.4,1,0.7,1.7,0.7H141.5z"/>
	<path class="st1" d="M163.2,93.1c0-1.2-0.2-2.1-0.7-2.5c-0.5-0.4-1.5-0.6-2.9-0.6h-8.1v-3.7h8.1c1.5,0,2.5,0,3,0.1
		c0.6,0.1,1.1,0.2,1.7,0.3c2.7,1,3.9,3.4,3.8,7.2v9.9h-10.2c-1.8,0-3.1-0.1-3.8-0.2c-0.7-0.1-1.3-0.3-1.8-0.7
		c-1.4-1-2.1-2.4-2.1-4.4c0-1.2,0.3-2.2,0.8-3.2s1.3-1.6,2.2-1.9c0.8-0.3,2.2-0.4,4.1-0.4H163.2z M163.2,96.8h-5.5h-0.8
		c-0.6,0-1,0.1-1.3,0.4c-0.3,0.3-0.5,0.7-0.5,1.2c0,0.6,0.2,0.9,0.6,1.2c0.4,0.2,1.1,0.4,2,0.4h5.5V96.8z"/>
	<path class="st1" d="M172.5,86.2h9.3c1.4,0,2.5,0.1,3.2,0.3c0.7,0.2,1.4,0.6,2,1.1c1.2,1.1,1.8,2.9,1.8,5.3v10.8H184V92.4
		c0-0.9-0.2-1.5-0.6-1.9c-0.4-0.4-1-0.6-1.9-0.6h-4.2v13.8h-4.8V86.2z"/>
	<path class="st1" d="M230.5,89.6v4.3h-14.3v9.9h-5.1V91.2c0-3.6,0.4-6,1-7.1c0.8-1.6,2-2.7,3.5-3.4c1.5-0.7,3.7-1,6.5-1h8.3V84
		h-7.7c-2.4,0-3.9,0.2-4.6,0.6c-1.3,0.6-2,1.8-2.1,3.7v1.3H230.5z"/>
	<path class="st1" d="M245.6,100V86.2h4.8v17.5h-9.5c-1.4,0-2.4-0.1-3.2-0.3s-1.4-0.6-2-1.1c-1.2-1.1-1.8-2.9-1.8-5.4V86.2h4.8v11.3
		c0,0.8,0.2,1.4,0.6,1.9c0.4,0.4,1,0.7,1.7,0.7H245.6z"/>
	<path class="st1" d="M255.2,86.2h7.1c1.5,0,2.6,0.1,3.4,0.3c0.8,0.2,1.5,0.5,2,1c0.5,0.5,0.9,1.1,1.1,1.8c0.2,0.7,0.3,1.8,0.3,3.1
		v1.7h-4.6v-0.9c0-1.2-0.2-2.1-0.6-2.6c-0.4-0.5-1.3-0.7-2.5-0.7H260v13.8h-4.8V86.2z"/>
	<path class="st1" d="M272,86.2h9.3c1.4,0,2.5,0.1,3.2,0.3s1.4,0.6,2,1.1c1.2,1.1,1.8,2.9,1.8,5.3v10.8h-4.8V92.4
		c0-0.9-0.2-1.5-0.6-1.9c-0.4-0.4-1-0.6-1.9-0.6h-4.2v13.8H272V86.2z"/>
	<path class="st1" d="M292.8,84.4v-4.7h4.8v4.7H292.8z M292.8,86.2h4.8v17.5h-4.8V86.2z"/>
	<path class="st1" d="M303.7,86.2v-6.5h4.8v6.5h4.5V90h-4.5v6.4c0,1.5,0.1,2.4,0.4,2.8c0.4,0.6,1.1,0.9,2.2,0.9h1.9v3.7h-3.5
		c-2.1,0-3.6-0.5-4.5-1.5c-0.9-1-1.3-2.7-1.3-5.1V90h-3.1v-3.7H303.7z"/>
	<path class="st1" d="M327.7,100V86.2h4.8v17.5H323c-1.4,0-2.4-0.1-3.2-0.3s-1.4-0.6-2-1.1c-1.2-1.1-1.8-2.9-1.8-5.4V86.2h4.8v11.3
		c0,0.8,0.2,1.4,0.6,1.9c0.4,0.4,1,0.7,1.7,0.7H327.7z"/>
	<path class="st1" d="M337.2,86.2h7.1c1.5,0,2.6,0.1,3.4,0.3c0.8,0.2,1.5,0.5,2,1c0.5,0.5,0.9,1.1,1.1,1.8c0.2,0.7,0.3,1.8,0.3,3.1
		v1.7h-4.6v-0.9c0-1.2-0.2-2.1-0.6-2.6c-0.4-0.5-1.3-0.7-2.5-0.7h-1.4v13.8h-4.8V86.2z"/>
	<path class="st1" d="M368.4,93.1v3.7h-10.2c0.1,1.2,0.5,2,1.1,2.4c0.6,0.5,1.7,0.7,3.2,0.7h5.9v3.7H362c-1.4,0-2.5-0.1-3.4-0.4
		c-0.9-0.3-1.7-0.7-2.5-1.2c-2.1-1.7-3.2-4.1-3.2-7.4c0-2.1,0.6-4,1.7-5.5c0.8-1.1,1.7-1.8,2.8-2.3s2.5-0.7,4.2-0.7h6.8V90H362
		c-1.3,0-2.2,0.2-2.8,0.7c-0.5,0.4-0.9,1.3-1,2.5H368.4z"/>
</g>
</svg>
